#
# Wavefront OBJ file: C:\Users\whebert\Documents\DPV_Simulations\Load_Test\Cube_5.obj
#
# Converted by the PolyTrans geometry converter from Okino Computer Graphics, Inc.
# Date/time of export: 08/27/2012 12:33:43
#
# Bounding box of geometry = (-0.5,-0.5,-0.5) to (0.5,0.5,0.5).

mtllib cube_5.mtl

# Coordinates for object 'IndexedFaceSet'
v  -0.500000 -0.500000 -0.500000 
v  0.500000 -0.500000 -0.500000 
v  -0.500000 0.500000 -0.500000 
v  0.500000 0.500000 -0.500000 
v  -0.500000 -0.500000 0.500000 
v  0.500000 -0.500000 0.500000 
v  -0.500000 0.500000 0.500000 
v  0.500000 0.500000 0.500000 
# 8 vertices

vt 0.0 0.0 0.0
vt 0.0 1.000000 0.0
vt 1.000000 0.0 0.0
vt 1.000000 1.000000 0.0
# 4 texture vertices

vn  -1.0 0.0 0.0 
vn  0.0 -1.0 0.0 
vn  0.0 0.0 -1.0 
vn  0.0 0.0 1.0 
vn  0.0 1.0 0.0 
vn  1.0 0.0 0.0 
# 6 normals

usemtl Cube_5

o IndexedFaceSet
g IndexedFaceSet

s off
f 1/3/3 3/4/3 4/2/3
f 4/2/3 2/1/3 1/3/3
f 5/1/4 6/3/4 8/4/4
f 8/4/4 7/2/4 5/1/4
f 1/1/2 2/3/2 6/4/2
f 6/4/2 5/2/2 1/1/2
f 2/1/6 4/3/6 8/4/6
f 8/4/6 6/2/6 2/1/6
f 4/1/5 3/3/5 7/4/5
f 7/4/5 8/2/5 4/1/5
f 3/1/1 1/3/1 5/4/1
f 5/4/1 7/2/1 3/1/1
# 12 polygons
